<svg version="1.2" xmlns="http://www.w3.org/2000/svg" viewBox="0 0 500 500" width="500" height="500">
	<title>New Project</title>
	<style>
		.s0 { fill: #dcdaf5 } 
		.s1 { fill: #1c1b1d } 
	</style>
	<path id="Shape 1" class="s0" d="m250 500c-138.3 0-250-111.8-250-250 0-138.3 111.8-250 250-250 138.3 0 250 111.8 250 250 0 138.3-111.8 250-250 250z"/>
	<path id="S" class="s1" aria-label="S"  d="m305.2 323q0-18.2-12.8-27.9-12.9-9.9-46.4-20.6-33.5-10.9-53-21.5-53.2-28.7-53.2-77.4 0-25.4 14.1-45.1 14.4-20 41-31.1 26.8-11.2 60.1-11.2 33.5 0 59.7 12.3 26.2 12 40.5 34.1 14.6 22.1 14.6 50.2h-64.4q0-21.5-13.5-33.3-13.5-12-38-12-23.6 0-36.7 10.1-13.1 9.9-13.1 26.2 0 15.2 15.3 25.5 15.4 10.3 45.3 19.3 54.9 16.6 80 41 25.1 24.5 25.1 61 0 40.5-30.7 63.7-30.6 23-82.6 23-36 0-65.7-13.1-29.6-13.3-45.2-36.3-15.5-22.9-15.5-53.2h64.6q0 51.7 61.8 51.7 23 0 35.9-9.2 12.8-9.4 12.8-26.2z"/>
</svg>